<mxfile host="Electron" modified="2024-05-13T05:43:38.813Z" agent="Mozilla/5.0 (Windows NT 10.0; Win64; x64) AppleWebKit/537.36 (KHTML, like Gecko) draw.io/24.1.0 Chrome/120.0.6099.109 Electron/28.1.0 Safari/537.36" etag="IIOo3E6EXzmMp076q8Td" version="24.1.0" type="device">
  <diagram name="Page-1" id="g6dS3q9Hj-z7d2nMNrN1">
    <mxGraphModel dx="2740" dy="661" grid="1" gridSize="10" guides="1" tooltips="1" connect="1" arrows="1" fold="1" page="1" pageScale="1" pageWidth="850" pageHeight="1100" math="0" shadow="0">
      <root>
        <mxCell id="0" />
        <mxCell id="1" parent="0" />
        <mxCell id="VQB_SgRrG4Z1jtRtXzJK-1" value="&lt;div&gt;Dish&lt;/div&gt;" style="whiteSpace=wrap;html=1;align=center;" parent="1" vertex="1">
          <mxGeometry x="-380" y="330" width="100" height="40" as="geometry" />
        </mxCell>
        <mxCell id="VQB_SgRrG4Z1jtRtXzJK-4" value="Meal" style="whiteSpace=wrap;html=1;align=center;" parent="1" vertex="1">
          <mxGeometry x="-710" y="330" width="100" height="40" as="geometry" />
        </mxCell>
        <mxCell id="VQB_SgRrG4Z1jtRtXzJK-12" value="&lt;div&gt;Ingredient&lt;/div&gt;" style="whiteSpace=wrap;html=1;align=center;" parent="1" vertex="1">
          <mxGeometry x="-80" y="330" width="100" height="40" as="geometry" />
        </mxCell>
        <mxCell id="VQB_SgRrG4Z1jtRtXzJK-35" style="edgeStyle=orthogonalEdgeStyle;rounded=0;orthogonalLoop=1;jettySize=auto;html=1;exitX=0.5;exitY=1;exitDx=0;exitDy=0;" parent="1" source="VQB_SgRrG4Z1jtRtXzJK-12" target="VQB_SgRrG4Z1jtRtXzJK-12" edge="1">
          <mxGeometry relative="1" as="geometry" />
        </mxCell>
        <mxCell id="VQB_SgRrG4Z1jtRtXzJK-50" value="&lt;div&gt;Is made of&lt;/div&gt;" style="shape=rhombus;perimeter=rhombusPerimeter;whiteSpace=wrap;html=1;align=center;" parent="1" vertex="1">
          <mxGeometry x="-560" y="320" width="120" height="60" as="geometry" />
        </mxCell>
        <mxCell id="VQB_SgRrG4Z1jtRtXzJK-51" value="Is made up of" style="shape=rhombus;perimeter=rhombusPerimeter;whiteSpace=wrap;html=1;align=center;" parent="1" vertex="1">
          <mxGeometry x="-250" y="320" width="120" height="60" as="geometry" />
        </mxCell>
        <mxCell id="VQB_SgRrG4Z1jtRtXzJK-83" value="&lt;div&gt;Date&lt;/div&gt;" style="ellipse;whiteSpace=wrap;html=1;align=center;" parent="1" vertex="1">
          <mxGeometry x="-800" y="470" width="100" height="40" as="geometry" />
        </mxCell>
        <mxCell id="VQB_SgRrG4Z1jtRtXzJK-100" value="Mealtime name" style="ellipse;whiteSpace=wrap;html=1;align=center;" parent="1" vertex="1">
          <mxGeometry x="-710" y="110" width="100" height="40" as="geometry" />
        </mxCell>
        <mxCell id="Wkem06L0AYpo7RbZHFtm-4" value="MealId" style="ellipse;whiteSpace=wrap;html=1;align=center;fontStyle=4;" parent="1" vertex="1">
          <mxGeometry x="-1030" y="470" width="100" height="40" as="geometry" />
        </mxCell>
        <mxCell id="Wkem06L0AYpo7RbZHFtm-5" value="" style="endArrow=none;html=1;rounded=0;exitX=0.5;exitY=0;exitDx=0;exitDy=0;entryX=0.5;entryY=1;entryDx=0;entryDy=0;" parent="1" source="Wkem06L0AYpo7RbZHFtm-4" target="VQB_SgRrG4Z1jtRtXzJK-4" edge="1">
          <mxGeometry relative="1" as="geometry">
            <mxPoint x="-380" y="390" as="sourcePoint" />
            <mxPoint x="-220" y="390" as="targetPoint" />
          </mxGeometry>
        </mxCell>
        <mxCell id="Wkem06L0AYpo7RbZHFtm-15" value="" style="shape=link;html=1;rounded=0;entryX=1;entryY=0.5;entryDx=0;entryDy=0;exitX=0;exitY=0.5;exitDx=0;exitDy=0;" parent="1" source="VQB_SgRrG4Z1jtRtXzJK-1" target="VQB_SgRrG4Z1jtRtXzJK-50" edge="1">
          <mxGeometry relative="1" as="geometry">
            <mxPoint x="-400" y="440" as="sourcePoint" />
            <mxPoint x="-240" y="440" as="targetPoint" />
          </mxGeometry>
        </mxCell>
        <mxCell id="Wkem06L0AYpo7RbZHFtm-16" value="N" style="resizable=0;html=1;whiteSpace=wrap;align=right;verticalAlign=bottom;" parent="Wkem06L0AYpo7RbZHFtm-15" connectable="0" vertex="1">
          <mxGeometry x="1" relative="1" as="geometry" />
        </mxCell>
        <mxCell id="Wkem06L0AYpo7RbZHFtm-17" value="DishId" style="ellipse;whiteSpace=wrap;html=1;align=center;fontStyle=4;" parent="1" vertex="1">
          <mxGeometry x="-500" y="410" width="100" height="40" as="geometry" />
        </mxCell>
        <mxCell id="Wkem06L0AYpo7RbZHFtm-18" value="" style="endArrow=none;html=1;rounded=0;exitX=1;exitY=0.5;exitDx=0;exitDy=0;entryX=0;entryY=0.5;entryDx=0;entryDy=0;" parent="1" source="VQB_SgRrG4Z1jtRtXzJK-4" target="VQB_SgRrG4Z1jtRtXzJK-50" edge="1">
          <mxGeometry relative="1" as="geometry">
            <mxPoint x="-480" y="440" as="sourcePoint" />
            <mxPoint x="-320" y="440" as="targetPoint" />
          </mxGeometry>
        </mxCell>
        <mxCell id="Wkem06L0AYpo7RbZHFtm-19" value="1" style="resizable=0;html=1;whiteSpace=wrap;align=right;verticalAlign=bottom;" parent="Wkem06L0AYpo7RbZHFtm-18" connectable="0" vertex="1">
          <mxGeometry x="1" relative="1" as="geometry" />
        </mxCell>
        <mxCell id="Wkem06L0AYpo7RbZHFtm-20" value="&lt;u&gt;IngredientId&lt;/u&gt;" style="ellipse;whiteSpace=wrap;html=1;align=center;" parent="1" vertex="1">
          <mxGeometry x="-170" y="440" width="100" height="40" as="geometry" />
        </mxCell>
        <mxCell id="Wkem06L0AYpo7RbZHFtm-25" value="" style="shape=link;html=1;rounded=0;entryX=1;entryY=0.5;entryDx=0;entryDy=0;exitX=0;exitY=0.5;exitDx=0;exitDy=0;dashed=1;dashPattern=1 2;" parent="1" source="VQB_SgRrG4Z1jtRtXzJK-12" target="VQB_SgRrG4Z1jtRtXzJK-51" edge="1">
          <mxGeometry relative="1" as="geometry">
            <mxPoint x="-480" y="440" as="sourcePoint" />
            <mxPoint x="-320" y="440" as="targetPoint" />
          </mxGeometry>
        </mxCell>
        <mxCell id="Wkem06L0AYpo7RbZHFtm-26" value="N" style="resizable=0;html=1;whiteSpace=wrap;align=right;verticalAlign=bottom;" parent="Wkem06L0AYpo7RbZHFtm-25" connectable="0" vertex="1">
          <mxGeometry x="1" relative="1" as="geometry" />
        </mxCell>
        <mxCell id="Wkem06L0AYpo7RbZHFtm-34" value="" style="endArrow=none;html=1;rounded=0;entryX=0;entryY=0.5;entryDx=0;entryDy=0;exitX=1;exitY=0.5;exitDx=0;exitDy=0;dashed=1;dashPattern=1 2;" parent="1" source="VQB_SgRrG4Z1jtRtXzJK-1" target="VQB_SgRrG4Z1jtRtXzJK-51" edge="1">
          <mxGeometry relative="1" as="geometry">
            <mxPoint x="-480" y="440" as="sourcePoint" />
            <mxPoint x="-320" y="440" as="targetPoint" />
          </mxGeometry>
        </mxCell>
        <mxCell id="Wkem06L0AYpo7RbZHFtm-35" value="1" style="resizable=0;html=1;whiteSpace=wrap;align=right;verticalAlign=bottom;" parent="Wkem06L0AYpo7RbZHFtm-34" connectable="0" vertex="1">
          <mxGeometry x="1" relative="1" as="geometry" />
        </mxCell>
        <mxCell id="Wkem06L0AYpo7RbZHFtm-38" value="" style="endArrow=none;html=1;rounded=0;entryX=0.5;entryY=1;entryDx=0;entryDy=0;exitX=0.5;exitY=0;exitDx=0;exitDy=0;" parent="1" source="Wkem06L0AYpo7RbZHFtm-17" target="VQB_SgRrG4Z1jtRtXzJK-1" edge="1">
          <mxGeometry relative="1" as="geometry">
            <mxPoint x="-480" y="380" as="sourcePoint" />
            <mxPoint x="-320" y="380" as="targetPoint" />
          </mxGeometry>
        </mxCell>
        <mxCell id="Wkem06L0AYpo7RbZHFtm-39" value="" style="endArrow=none;html=1;rounded=0;entryX=0.5;entryY=1;entryDx=0;entryDy=0;exitX=0.5;exitY=0;exitDx=0;exitDy=0;" parent="1" source="Wkem06L0AYpo7RbZHFtm-20" target="VQB_SgRrG4Z1jtRtXzJK-12" edge="1">
          <mxGeometry relative="1" as="geometry">
            <mxPoint x="-480" y="380" as="sourcePoint" />
            <mxPoint x="-320" y="380" as="targetPoint" />
          </mxGeometry>
        </mxCell>
        <mxCell id="Wkem06L0AYpo7RbZHFtm-41" value="Caloric Content" style="ellipse;whiteSpace=wrap;html=1;align=center;dashed=1;dashPattern=1 2;" parent="1" vertex="1">
          <mxGeometry x="-280" y="430" width="100" height="40" as="geometry" />
        </mxCell>
        <mxCell id="Wkem06L0AYpo7RbZHFtm-42" value="Caloric Content" style="ellipse;whiteSpace=wrap;html=1;align=center;dashed=1;dashPattern=1 2;" parent="1" vertex="1">
          <mxGeometry x="-580" y="470" width="100" height="40" as="geometry" />
        </mxCell>
        <mxCell id="Wkem06L0AYpo7RbZHFtm-44" value="Caloric Content" style="ellipse;whiteSpace=wrap;html=1;align=center;" parent="1" vertex="1">
          <mxGeometry x="10" y="440" width="100" height="40" as="geometry" />
        </mxCell>
        <mxCell id="Wkem06L0AYpo7RbZHFtm-47" value="" style="endArrow=none;html=1;rounded=0;entryX=0.5;entryY=1;entryDx=0;entryDy=0;exitX=0.5;exitY=0;exitDx=0;exitDy=0;" parent="1" source="Wkem06L0AYpo7RbZHFtm-44" target="VQB_SgRrG4Z1jtRtXzJK-12" edge="1">
          <mxGeometry relative="1" as="geometry">
            <mxPoint x="-240" y="380" as="sourcePoint" />
            <mxPoint x="-80" y="380" as="targetPoint" />
          </mxGeometry>
        </mxCell>
        <mxCell id="Wkem06L0AYpo7RbZHFtm-49" value="" style="endArrow=none;html=1;rounded=0;entryX=0.5;entryY=1;entryDx=0;entryDy=0;exitX=0.5;exitY=0;exitDx=0;exitDy=0;" parent="1" source="Wkem06L0AYpo7RbZHFtm-41" target="VQB_SgRrG4Z1jtRtXzJK-1" edge="1">
          <mxGeometry relative="1" as="geometry">
            <mxPoint x="-490" y="380" as="sourcePoint" />
            <mxPoint x="-330" y="380" as="targetPoint" />
          </mxGeometry>
        </mxCell>
        <mxCell id="Wkem06L0AYpo7RbZHFtm-50" value="" style="endArrow=none;html=1;rounded=0;exitX=0.5;exitY=1;exitDx=0;exitDy=0;entryX=0.5;entryY=0;entryDx=0;entryDy=0;" parent="1" source="VQB_SgRrG4Z1jtRtXzJK-4" target="Wkem06L0AYpo7RbZHFtm-42" edge="1">
          <mxGeometry relative="1" as="geometry">
            <mxPoint x="-490" y="380" as="sourcePoint" />
            <mxPoint x="-330" y="380" as="targetPoint" />
          </mxGeometry>
        </mxCell>
        <mxCell id="Wkem06L0AYpo7RbZHFtm-51" value="Mealtime" style="whiteSpace=wrap;html=1;align=center;" parent="1" vertex="1">
          <mxGeometry x="-710" y="190" width="100" height="40" as="geometry" />
        </mxCell>
        <mxCell id="Wkem06L0AYpo7RbZHFtm-52" value="Is eaten at" style="shape=rhombus;perimeter=rhombusPerimeter;whiteSpace=wrap;html=1;align=center;" parent="1" vertex="1">
          <mxGeometry x="-720" y="250" width="120" height="60" as="geometry" />
        </mxCell>
        <mxCell id="Wkem06L0AYpo7RbZHFtm-53" value="" style="endArrow=none;html=1;rounded=0;exitX=0.5;exitY=1;exitDx=0;exitDy=0;entryX=0.5;entryY=0;entryDx=0;entryDy=0;" parent="1" source="Wkem06L0AYpo7RbZHFtm-52" target="VQB_SgRrG4Z1jtRtXzJK-4" edge="1">
          <mxGeometry relative="1" as="geometry">
            <mxPoint x="-450" y="330" as="sourcePoint" />
            <mxPoint x="-290" y="330" as="targetPoint" />
          </mxGeometry>
        </mxCell>
        <mxCell id="Wkem06L0AYpo7RbZHFtm-54" value="1" style="resizable=0;html=1;whiteSpace=wrap;align=right;verticalAlign=bottom;" parent="Wkem06L0AYpo7RbZHFtm-53" connectable="0" vertex="1">
          <mxGeometry x="1" relative="1" as="geometry" />
        </mxCell>
        <mxCell id="Wkem06L0AYpo7RbZHFtm-58" value="" style="shape=link;html=1;rounded=0;exitX=0.5;exitY=0;exitDx=0;exitDy=0;entryX=0.5;entryY=1;entryDx=0;entryDy=0;" parent="1" source="Wkem06L0AYpo7RbZHFtm-52" target="Wkem06L0AYpo7RbZHFtm-51" edge="1">
          <mxGeometry relative="1" as="geometry">
            <mxPoint x="-470" y="280" as="sourcePoint" />
            <mxPoint x="-570" y="270" as="targetPoint" />
          </mxGeometry>
        </mxCell>
        <mxCell id="Wkem06L0AYpo7RbZHFtm-59" value="1" style="resizable=0;html=1;whiteSpace=wrap;align=right;verticalAlign=bottom;" parent="Wkem06L0AYpo7RbZHFtm-58" connectable="0" vertex="1">
          <mxGeometry x="1" relative="1" as="geometry">
            <mxPoint y="20" as="offset" />
          </mxGeometry>
        </mxCell>
        <mxCell id="Wkem06L0AYpo7RbZHFtm-61" value="Time" style="ellipse;whiteSpace=wrap;html=1;align=center;" parent="1" vertex="1">
          <mxGeometry x="-690" y="470" width="100" height="40" as="geometry" />
        </mxCell>
        <mxCell id="Wkem06L0AYpo7RbZHFtm-62" value="Name" style="ellipse;whiteSpace=wrap;html=1;align=center;" parent="1" vertex="1">
          <mxGeometry x="-440" y="460" width="100" height="40" as="geometry" />
        </mxCell>
        <mxCell id="Wkem06L0AYpo7RbZHFtm-63" value="Name" style="ellipse;whiteSpace=wrap;html=1;align=center;" parent="1" vertex="1">
          <mxGeometry x="-80" y="470" width="100" height="40" as="geometry" />
        </mxCell>
        <mxCell id="Wkem06L0AYpo7RbZHFtm-64" value="" style="endArrow=none;html=1;rounded=0;entryX=0.5;entryY=1;entryDx=0;entryDy=0;exitX=0.5;exitY=0;exitDx=0;exitDy=0;" parent="1" source="Wkem06L0AYpo7RbZHFtm-62" target="VQB_SgRrG4Z1jtRtXzJK-1" edge="1">
          <mxGeometry relative="1" as="geometry">
            <mxPoint x="-450" y="330" as="sourcePoint" />
            <mxPoint x="-290" y="330" as="targetPoint" />
          </mxGeometry>
        </mxCell>
        <mxCell id="Wkem06L0AYpo7RbZHFtm-65" value="" style="endArrow=none;html=1;rounded=0;entryX=0.5;entryY=1;entryDx=0;entryDy=0;exitX=0.5;exitY=0;exitDx=0;exitDy=0;" parent="1" source="Wkem06L0AYpo7RbZHFtm-63" target="VQB_SgRrG4Z1jtRtXzJK-12" edge="1">
          <mxGeometry relative="1" as="geometry">
            <mxPoint x="-450" y="330" as="sourcePoint" />
            <mxPoint x="-290" y="330" as="targetPoint" />
          </mxGeometry>
        </mxCell>
        <mxCell id="Wkem06L0AYpo7RbZHFtm-67" value="Description" style="ellipse;whiteSpace=wrap;html=1;align=center;" parent="1" vertex="1">
          <mxGeometry x="-920" y="470" width="100" height="40" as="geometry" />
        </mxCell>
        <mxCell id="Wkem06L0AYpo7RbZHFtm-68" value="" style="endArrow=none;html=1;rounded=0;dashed=1;dashPattern=1 2;exitX=0.5;exitY=0;exitDx=0;exitDy=0;entryX=0.5;entryY=1;entryDx=0;entryDy=0;" parent="1" source="Wkem06L0AYpo7RbZHFtm-67" target="VQB_SgRrG4Z1jtRtXzJK-4" edge="1">
          <mxGeometry relative="1" as="geometry">
            <mxPoint x="-560" y="540" as="sourcePoint" />
            <mxPoint x="-400" y="540" as="targetPoint" />
          </mxGeometry>
        </mxCell>
        <mxCell id="Wkem06L0AYpo7RbZHFtm-70" value="MealtimeId" style="ellipse;whiteSpace=wrap;html=1;align=center;fontStyle=4;" parent="1" vertex="1">
          <mxGeometry x="-570" y="170" width="100" height="40" as="geometry" />
        </mxCell>
        <mxCell id="Wkem06L0AYpo7RbZHFtm-71" value="" style="endArrow=none;html=1;rounded=0;exitX=0.5;exitY=0;exitDx=0;exitDy=0;entryX=0.5;entryY=1;entryDx=0;entryDy=0;" parent="1" source="Wkem06L0AYpo7RbZHFtm-51" target="VQB_SgRrG4Z1jtRtXzJK-100" edge="1">
          <mxGeometry relative="1" as="geometry">
            <mxPoint x="-570" y="239.44" as="sourcePoint" />
            <mxPoint x="-410" y="239.44" as="targetPoint" />
          </mxGeometry>
        </mxCell>
        <mxCell id="Wkem06L0AYpo7RbZHFtm-72" value="" style="endArrow=none;html=1;rounded=0;exitX=1;exitY=0.5;exitDx=0;exitDy=0;entryX=0;entryY=0.5;entryDx=0;entryDy=0;" parent="1" source="Wkem06L0AYpo7RbZHFtm-51" target="Wkem06L0AYpo7RbZHFtm-70" edge="1">
          <mxGeometry relative="1" as="geometry">
            <mxPoint x="-610" y="239.44" as="sourcePoint" />
            <mxPoint x="-450" y="239.44" as="targetPoint" />
          </mxGeometry>
        </mxCell>
        <mxCell id="Wkem06L0AYpo7RbZHFtm-75" value="Tags" style="ellipse;shape=doubleEllipse;margin=3;whiteSpace=wrap;html=1;align=center;" parent="1" vertex="1">
          <mxGeometry x="-340" y="470" width="100" height="40" as="geometry" />
        </mxCell>
        <mxCell id="Wkem06L0AYpo7RbZHFtm-77" value="" style="endArrow=none;html=1;rounded=0;dashed=1;dashPattern=1 2;entryX=0.5;entryY=0;entryDx=0;entryDy=0;exitX=0.5;exitY=1;exitDx=0;exitDy=0;" parent="1" source="VQB_SgRrG4Z1jtRtXzJK-1" target="Wkem06L0AYpo7RbZHFtm-75" edge="1">
          <mxGeometry relative="1" as="geometry">
            <mxPoint x="-410" y="380" as="sourcePoint" />
            <mxPoint x="-250" y="380" as="targetPoint" />
          </mxGeometry>
        </mxCell>
        <mxCell id="Wkem06L0AYpo7RbZHFtm-79" value="Kyler Veenstra&lt;div&gt;Andy Gaspar&lt;/div&gt;" style="text;html=1;align=center;verticalAlign=middle;resizable=0;points=[];autosize=1;strokeColor=none;fillColor=none;" parent="1" vertex="1">
          <mxGeometry x="-850" y="10" width="100" height="40" as="geometry" />
        </mxCell>
        <mxCell id="yw34YddHWhtBdKe12FgO-2" value="" style="endArrow=none;html=1;rounded=0;exitX=0.5;exitY=0;exitDx=0;exitDy=0;" edge="1" parent="1" source="VQB_SgRrG4Z1jtRtXzJK-83">
          <mxGeometry relative="1" as="geometry">
            <mxPoint x="-820" y="350" as="sourcePoint" />
            <mxPoint x="-660" y="370" as="targetPoint" />
          </mxGeometry>
        </mxCell>
        <mxCell id="yw34YddHWhtBdKe12FgO-3" value="" style="endArrow=none;html=1;rounded=0;exitX=0.5;exitY=1;exitDx=0;exitDy=0;entryX=0.5;entryY=0;entryDx=0;entryDy=0;" edge="1" parent="1" source="VQB_SgRrG4Z1jtRtXzJK-4" target="Wkem06L0AYpo7RbZHFtm-61">
          <mxGeometry relative="1" as="geometry">
            <mxPoint x="-710" y="560" as="sourcePoint" />
            <mxPoint x="-550" y="560" as="targetPoint" />
          </mxGeometry>
        </mxCell>
      </root>
    </mxGraphModel>
  </diagram>
</mxfile>
